<?xml version="1.0" standalone="no"?>
<!DOCTYPE svg PUBLIC "-//W3C//DTD SVG 20010904//EN"
 "http://www.w3.org/TR/2001/REC-SVG-20010904/DTD/svg10.dtd">
<svg version="1.0" xmlns="http://www.w3.org/2000/svg"
 width="512.000000pt" height="512.000000pt" viewBox="0 0 512.000000 512.000000"
 preserveAspectRatio="xMidYMid meet">

<g transform="translate(0.000000,512.000000) scale(0.100000,-0.100000)"
fill="#000000" stroke="none">
<path d="M1078 4448 c-267 -271 -281 -290 -263 -349 4 -13 123 -139 264 -281
229 -231 259 -258 288 -258 48 0 80 19 98 57 30 62 17 84 -153 255 l-155 157
457 3 458 3 29 33 c33 37 38 84 13 121 -35 49 -51 51 -521 51 l-438 0 152 153
c83 83 156 163 163 176 30 59 -26 141 -98 141 -35 1 -49 -12 -294 -262z"/>
<path d="M3681 4684 c-35 -29 -49 -80 -31 -115 7 -13 80 -93 163 -176 l152
-153 -438 0 c-470 0 -486 -2 -521 -51 -25 -37 -20 -84 13 -121 l29 -33 458 -3
457 -3 -155 -157 c-170 -171 -183 -193 -153 -255 18 -38 50 -57 98 -57 29 0
59 27 288 258 141 142 260 268 264 281 18 59 4 78 -263 349 -245 250 -259 263
-294 262 -24 0 -47 -9 -67 -26z"/>
<path d="M2473 4406 c-107 -35 -187 -108 -223 -203 -20 -53 -20 -77 -20 -1318
0 -797 -4 -1273 -10 -1289 -6 -16 -17 -26 -29 -26 -10 0 -63 28 -117 61 -110
70 -211 119 -299 145 -84 26 -250 26 -324 0 -150 -52 -220 -220 -147 -352 37
-67 738 -776 825 -834 89 -59 230 -124 331 -151 80 -21 108 -23 460 -27 257
-3 403 0 465 8 350 47 657 268 810 583 63 131 94 248 106 402 6 74 9 351 7
645 -4 568 -2 552 -69 645 -86 120 -264 174 -393 120 -32 -13 -32 -13 -56 31
-32 61 -109 129 -176 153 -65 25 -163 28 -222 7 l-40 -14 -17 44 c-9 25 -39
67 -66 95 -85 88 -208 125 -316 96 l-52 -14 -3 471 -3 471 -33 67 c-36 74 -96
134 -169 169 -56 27 -161 34 -220 15z m155 -213 c13 -8 32 -28 42 -46 19 -31
20 -57 20 -917 0 -590 4 -898 11 -923 21 -76 112 -98 168 -42 l26 25 5 336 5
336 37 34 c32 28 45 34 84 34 30 0 56 -7 75 -21 58 -41 59 -50 59 -379 0 -332
4 -356 59 -384 38 -20 54 -20 91 -1 55 28 60 53 60 277 0 186 2 206 20 236 21
34 72 62 112 62 33 0 85 -35 108 -72 18 -30 20 -51 20 -231 0 -218 6 -244 60
-272 37 -19 53 -19 91 1 46 23 59 66 59 195 l0 111 39 39 c33 33 45 39 82 39
53 0 102 -28 124 -70 14 -27 16 -97 13 -633 -4 -546 -6 -608 -22 -667 -22 -80
-83 -213 -125 -274 -116 -169 -301 -296 -504 -347 -71 -18 -122 -22 -392 -26
-426 -7 -542 7 -700 83 -117 57 -187 119 -537 477 -363 371 -373 384 -305 406
136 42 284 1 477 -133 41 -28 88 -57 103 -64 45 -19 141 -15 192 9 56 26 117
95 133 147 9 29 12 364 12 1306 0 1065 2 1271 14 1294 38 74 117 97 184 55z"/>
</g>
</svg>
