<?xml version="1.0" standalone="no"?>
<!DOCTYPE svg PUBLIC "-//W3C//DTD SVG 20010904//EN"
 "http://www.w3.org/TR/2001/REC-SVG-20010904/DTD/svg10.dtd">
<svg version="1.0" xmlns="http://www.w3.org/2000/svg"
 width="512.000000pt" height="512.000000pt" viewBox="0 0 512.000000 512.000000"
 preserveAspectRatio="xMidYMid meet">

<g transform="translate(0.000000,512.000000) scale(0.100000,-0.100000)"
fill="#000000" stroke="none">
<path d="M1125 4645 c-586 -92 -1041 -563 -1114 -1155 -15 -115 -15 -1745 0
-1860 70 -568 488 -1022 1054 -1145 100 -22 321 -30 430 -16 573 75 1018 493
1142 1071 17 79 18 154 18 1020 0 866 -1 941 -18 1020 -82 384 -306 703 -628
895 -259 154 -588 217 -884 170z m406 -305 c373 -76 667 -341 782 -705 45
-143 47 -189 47 -1078 0 -907 -2 -941 -53 -1092 -100 -292 -317 -522 -600
-634 -285 -113 -625 -88 -892 67 -271 158 -462 439 -504 746 -15 106 -15 1726
0 1832 42 307 233 588 505 746 212 123 475 167 715 118z"/>
<path d="M1245 3909 c-17 -4 -46 -25 -65 -44 l-35 -36 -3 -451 -3 -452 -157
156 c-176 176 -194 185 -277 153 -71 -27 -105 -92 -91 -171 6 -30 45 -76 232
-267 123 -127 224 -234 224 -237 0 -3 -101 -110 -224 -237 -187 -191 -226
-237 -232 -267 -14 -79 20 -144 91 -171 83 -32 101 -23 278 153 l157 156 0
-440 c0 -441 0 -441 23 -474 48 -72 123 -94 192 -57 46 24 719 640 733 671 18
40 15 94 -9 135 -12 20 -142 146 -291 280 -148 134 -267 248 -265 254 1 5 122
118 267 251 145 133 275 256 287 275 26 38 30 95 11 137 -13 29 -686 647 -728
669 -37 19 -81 25 -115 14z m360 -634 c66 -60 121 -109 122 -110 4 -2 -276
-255 -282 -255 -3 0 -5 116 -5 257 l0 256 23 -19 c12 -11 76 -69 142 -129z
m-15 -1192 c77 -70 138 -127 137 -128 -1 -1 -56 -50 -122 -110 -66 -60 -130
-118 -142 -129 l-23 -19 0 256 c0 141 2 257 5 257 3 0 69 -57 145 -127z"/>
<path d="M3980 4632 c-50 -26 -84 -97 -75 -154 7 -39 22 -57 162 -192 84 -82
187 -190 228 -241 505 -628 655 -1455 404 -2220 -29 -87 -80 -213 -124 -300
-133 -270 -268 -449 -511 -683 -84 -81 -158 -160 -164 -177 -29 -75 27 -176
105 -191 85 -16 141 20 341 220 210 211 365 428 499 701 293 594 353 1268 170
1906 -135 468 -411 911 -765 1227 -52 47 -108 93 -125 104 -38 23 -100 23
-145 0z"/>
<path d="M3525 4068 c-72 -40 -105 -109 -84 -179 10 -31 32 -58 92 -112 271
-244 448 -554 519 -912 32 -158 32 -442 0 -601 -30 -153 -73 -278 -143 -419
-86 -173 -171 -288 -333 -448 l-139 -138 -5 -53 c-8 -96 49 -160 143 -160 66
0 111 31 255 181 163 167 263 307 355 498 326 674 236 1465 -232 2045 -81 101
-267 278 -309 296 -40 17 -91 18 -119 2z"/>
<path d="M3050 3492 c-49 -24 -80 -75 -80 -129 0 -59 16 -85 104 -171 119
-116 197 -248 242 -412 28 -100 26 -339 -3 -442 -49 -167 -119 -284 -254 -417
-67 -67 -89 -95 -94 -123 -26 -138 114 -227 236 -150 61 39 178 167 246 269
193 290 246 674 138 1008 -58 181 -179 373 -313 495 -98 91 -151 108 -222 72z"/>
</g>
</svg>
