<?xml version="1.0" standalone="no"?>
<!DOCTYPE svg PUBLIC "-//W3C//DTD SVG 20010904//EN"
 "http://www.w3.org/TR/2001/REC-SVG-20010904/DTD/svg10.dtd">
<svg version="1.0" xmlns="http://www.w3.org/2000/svg"
 width="512.000000pt" height="512.000000pt" viewBox="0 0 512.000000 512.000000"
 preserveAspectRatio="xMidYMid meet">

<g transform="translate(0.000000,512.000000) scale(0.100000,-0.100000)"
fill="#000000" stroke="none">
<path d="M2315 5109 c-597 -61 -1141 -318 -1563 -739 -1002 -1000 -1002 -2620
0 -3620 406 -405 901 -648 1493 -732 119 -17 512 -16 635 1 580 80 1087 330
1490 733 404 405 648 902 732 1493 17 118 17 512 0 630 -84 592 -328 1089
-733 1494 -396 396 -891 644 -1454 727 -122 18 -477 26 -600 13z m575 -314
c641 -99 1213 -467 1564 -1007 31 -47 56 -89 56 -93 0 -3 -12 2 -27 13 -44 31
-202 107 -272 131 -365 125 -777 89 -1104 -96 -33 -18 -62 -33 -65 -33 -4 0
-27 35 -51 78 -178 309 -417 697 -431 697 -26 0 -462 -736 -694 -1172 -252
-472 -434 -909 -486 -1164 -102 -498 170 -1033 645 -1268 176 -87 335 -124
535 -124 342 -1 641 128 879 378 l86 91 45 -7 c71 -12 318 -12 395 1 83 13
168 34 250 62 67 23 225 100 268 130 15 11 27 16 27 13 0 -4 -25 -46 -56 -93
-305 -470 -788 -819 -1325 -956 -213 -55 -336 -70 -564 -70 -212 -1 -310 9
-493 50 -916 204 -1603 944 -1748 1884 -25 159 -25 481 0 640 161 1040 980
1823 2021 1930 123 12 417 4 545 -15z m-233 -1032 c51 -87 103 -179 117 -204
l26 -46 -56 -64 c-154 -177 -258 -388 -310 -630 -26 -118 -26 -400 0 -518 89
-414 343 -754 704 -941 34 -17 62 -34 62 -36 0 -9 -86 -82 -138 -117 -259
-173 -598 -199 -878 -68 -105 50 -162 89 -248 170 -232 223 -325 532 -250 832
81 319 344 874 742 1561 69 120 128 218 131 218 4 0 48 -71 98 -157z m1318
-172 c406 -84 714 -385 817 -798 31 -125 31 -341 0 -466 -88 -353 -321 -621
-651 -750 -218 -85 -492 -90 -717 -13 -346 117 -608 414 -692 781 -21 95 -21
335 0 430 96 420 418 737 834 819 104 21 301 19 409 -3z"/>
<path d="M3872 2795 c-214 -179 -394 -325 -398 -325 -5 0 -53 44 -106 97 l-98
98 -107 -108 -108 -107 195 -195 c107 -107 198 -195 203 -195 6 0 942 774 991
820 18 17 15 21 -74 129 -51 61 -97 111 -101 111 -4 0 -183 -146 -397 -325z"/>
</g>
</svg>
